inDegrees=yes
name=ik_S57_A10_T02
DataType=double
version=3
OpenSimVersion=4.3-2021-08-27-4bc7ad9
endheader
time	pelvis_tilt	pelvis_list	pelvis_rotation	pelvis_tx	pelvis_ty	pelvis_tz	hip_flexion_r	hip_adduction_r	hip_rotation_r	knee_angle_r	knee_angle_r_beta	ankle_angle_r	subtalar_angle_r	mtp_angle_r	hip_flexion_l	hip_adduction_l	hip_rotation_l	knee_angle_l	knee_angle_l_beta	ankle_angle_l	subtalar_angle_l	mtp_angle_l	lumbar_extension	lumbar_bending	lumbar_rotation	arm_flex_r	arm_add_r	arm_rot_r	elbow_flex_r	pro_sup_r	wrist_flex_r	wrist_dev_r	arm_flex_l	arm_add_l	arm_rot_l	elbow_flex_l	pro_sup_l	wrist_flex_l	wrist_dev_l
4.479999999999992	-0.8901363813984412	-0.8052609985719406	16.75946500171984	0	0.9399999999999999	0	44.21448184367054	-10.02797954655589	-10.02603687906088	55.16369376585875	0.962788083776105	0	0	0	44.21448184367054	-10.02797954655589	-10.02603687906088	55.16369376585875	0.962788083776105	0	0	0	-1.384268732455908	-0.6692689741601183	2.751943657545894	70.45614452692078	8.778716462951692	0.06062555062173711	27.15014416318007	91.73834271186848	0	0	71.46094103003341	-16.40807021033037	35.46161566233496	43.19164866907608	48.42651219055274	0	0
4.499999999999992	-1.252365068442846	-1.227161198090471	16.93625283826149	0	0.9399999999999999	0	44.21489530035418	-10.02792832701357	-10.02600626121001	55.16363591516062	0.9627870740909481	0	0	0	44.21489530035418	-10.02792832701357	-10.02600626121001	55.16363591516062	0.9627870740909481	0	0	0	-1.847424044844613	-0.978623836750718	2.952100746547731	71.57156622102194	9.178994956195563	-0.5679588191754636	25.71835927667028	90.97318709562094	0	0	72.51700780381074	-15.257096778077	36.5327138570748	41.99356145743097	47.01207355518579	0	0
4.519999999999992	-1.251290906407627	-1.223530643737529	16.78321681772006	0	0.9399999999999999	0	44.21528909080218	-10.02787942644938	-10.02597704674735	55.16358100173445	0.9627861156708579	0	0	0	44.21528909080218	-10.02787942644938	-10.02597704674735	55.16358100173445	0.9627861156708579	0	0	0	-1.842078430069928	-0.9814021724710897	3.102893305021118	71.55071765090747	9.275214846131458	-0.4860059996905424	24.81572655509002	90.75174881156808	0	0	72.6244427563778	-14.33495582722434	36.80922066328297	41.14007317333726	45.61978325299488	0	0
4.539999999999991	-1.951609054059401	-1.739010276099122	16.53599077990678	0	0.9399999999999999	0	44.21576390185405	-10.0278207310171	-10.02594191822112	55.16351458818644	0.9627849565357773	0	0	0	44.21576390185405	-10.0278207310171	-10.02594191822112	55.16351458818644	0.9627849565357773	0	0	0	-2.656407897216449	-1.277310859593838	3.222811189764999	73.4517962009018	9.984609212450268	-1.401773379639711	24.06402077541402	90.51681209212521	0	0	74.64252919735409	-13.8078600652164	37.73171944377444	40.19231201084626	44.77791878335911	0	0
4.559999999999991	-2.246463126879469	-2.012287352240203	16.60042070339424	0	0.9399999999999999	0	44.21683365384068	-10.0276908189454	-10.02586356865203	55.16336372907023	0.9627823235474927	0	0	0	44.21683365384068	-10.0276908189454	-10.02586356865203	55.16336372907023	0.9627823235474927	0	0	0	-3.027115845901178	-1.438604268920788	2.998155759252466	74.45298115849289	11.38277948222997	1.095596158805463	22.96708719067531	86.39136394745803	0	0	76.26765751679804	-12.45919690242422	40.01973969347288	37.53843506190106	42.17874954563322	0	0
4.57999999999999	-2.512597017229476	-2.328196907533294	16.62420371007425	0	0.9399999999999999	0	44.21722648133418	-10.02764360633841	-10.02583502211976	55.16330751737736	0.9627813424683741	0	0	0	44.21722648133418	-10.02764360633841	-10.02583502211976	55.16330751737736	0.9627813424683741	0	0	0	-3.37434520365342	-1.661963272833536	2.939130605622099	75.76747053552434	12.48658358807499	1.263211963793664	21.6279209369384	84.0063426879785	0	0	77.69573541486304	-11.56355164786174	41.60627114127719	35.8120611160934	39.76209033298215	0	0
4.59999999999999	-2.73378436323736	-2.539235082199591	16.58574704621148	0	0.9399999999999999	0	44.21752132094446	-10.02760804592707	-10.02581354348347	55.16326549211602	0.9627806089891946	0	0	0	44.21752132094446	-10.02760804592707	-10.02581354348347	55.16326549211602	0.9627806089891946	0	0	0	-3.641003269915494	-1.808882046328584	3.05310802656213	77.18201597825473	13.27139237606964	0.6739793383830153	19.95371101906762	82.6375166928222	0	0	78.98476029483172	-10.59249031584369	42.9018031876864	33.77909099570876	37.74416784691945	0	0
